<?xml version="1.0" encoding="utf-8"?>
<!-- Generator: Adobe Illustrator 16.0.4, SVG Export Plug-In . SVG Version: 6.00 Build 0)  -->
<!DOCTYPE svg PUBLIC "-//W3C//DTD SVG 1.1//EN" "http://www.w3.org/Graphics/SVG/1.1/DTD/svg11.dtd">
<svg version="1.1" xmlns="http://www.w3.org/2000/svg" xmlns:xlink="http://www.w3.org/1999/xlink" x="0px" y="0px" width="508px"
	 height="508px" viewBox="0 0 508 508" enable-background="new 0 0 508 508" xml:space="preserve">
<g id="Layer_1">
</g>
<g id="Layer_2">
	<g>
		<path fill="#F26722" d="M254,497c-64.908,0-125.93-25.276-171.827-71.173C36.276,379.931,11,318.908,11,254
			S36.276,128.069,82.173,82.173C128.07,36.276,189.092,11,254,11c64.908,0,125.931,25.276,171.827,71.173S497,189.092,497,254
			s-25.276,125.931-71.173,171.827S318.908,497,254,497z"/>
		<path fill="#FFFFFF" d="M254,22c31.33,0,61.711,6.131,90.299,18.223c27.623,11.684,52.437,28.415,73.75,49.729
			s38.045,46.127,49.729,73.75C479.869,192.289,486,222.67,486,254s-6.131,61.711-18.223,90.299
			c-11.684,27.623-28.415,52.437-49.729,73.75s-46.127,38.045-73.75,49.729C315.711,479.869,285.33,486,254,486
			c-31.33,0-61.71-6.131-90.298-18.223c-27.624-11.684-52.438-28.415-73.751-49.729s-38.044-46.127-49.729-73.75
			C28.131,315.711,22,285.33,22,254s6.131-61.711,18.223-90.299c11.684-27.623,28.415-52.437,49.729-73.75
			s46.127-38.045,73.751-49.729C192.29,28.131,222.67,22,254,22 M254,0C113.72,0,0,113.719,0,254s113.72,254,254,254
			c140.281,0,254-113.719,254-254S394.281,0,254,0L254,0z"/>
	</g>
</g>
<g id="Layer_3">
	<g>
		<path fill="#FFFFFF" d="M377.597,72.86c-11.151,0.104-22.302,0.095-33.452,0.038c-7.472-0.029-10.687,3.631-10.487,11.017
			c0.228,8.363-0.454,16.774,0.313,25.071c0.341,3.641,2.398,8.211,5.205,10.363c11.331,8.667,23.155,16.717,35.008,24.672
			c8.609,5.774,13.919,3.006,14.185-7.187c0.189-7.378,0.095-14.755,0.057-22.131c-0.01-1.337-0.019-2.665-0.019-4.002
			c0-2.645-0.029-5.29-0.047-7.936v-0.038c-0.029-2.589-0.048-5.178-0.048-7.767c0-3.461,0.038-6.931,0.171-10.392
			C388.775,76.719,385.618,72.784,377.597,72.86z M424.93,202.715c-54.71-38.099-109.26-76.442-164.141-114.285
			c-3.053-2.105-9.918-2.399-12.839-0.38c-55.194,38.013-110.038,76.538-165.014,114.874c-6.609,4.607-7.074,9.463-2.313,15.787
			c5.869,7.804,11.236,15.986,16.868,23.979c7.956,11.255,9.112,11.464,20.756,3.329c42.631-29.793,85.233-59.633,127.864-89.425
			c2.531-1.773,5.186-3.366,8.068-5.233c2.826,1.877,5.442,3.527,7.984,5.3c42.905,30.021,85.783,60.068,128.697,90.069
			c10.327,7.206,11.91,6.922,19.249-3.348c5.888-8.23,11.587-16.593,17.494-24.813C432.128,212.282,431.587,207.352,424.93,202.715z
			 M388.852,280.258c0.038-6.703-2.247-10.951-7.68-14.715c-39.321-27.242-78.559-54.598-117.614-82.229
			c-6.713-4.75-11.881-5.016-18.756-0.142c-39.018,27.668-78.226,55.071-117.623,82.198c-6.523,4.485-8.96,9.444-8.894,17.277
			c0.322,41.217,0.132,82.444,0.142,123.672c0.01,13.228,1.081,14.279,14.384,14.29c40.175,0.019,80.35,0.009,120.525,0.009
			c40.877,0,81.753-0.199,122.62,0.143c9.378,0.075,13.038-2.893,12.953-12.649C388.52,365.501,388.605,322.879,388.852,280.258z
			 M298.745,387.518c-5.281,6.012-11.444,4.96-17.617,0.246c-18.452-14.1-33.111-14.023-52.084,0.096
			c-6.144,4.58-12.204,5.613-17.674-0.408c-5.642-6.211-3.537-12.23,1.953-17.418c11.701-11.047,25.923-15.91,41.521-16.783
			c15.721,0.739,29.583,5.557,41.236,16.053C302.026,374.65,304.481,380.985,298.745,387.518z M329.723,356.815
			c-6.923,6.296-12.99,3.337-19.268-2.028c-34.126-29.225-76.898-29.034-111.09,0.436c-6.4,5.509-12.962,7.926-19.172,1.062
			c-6.353-7.036-2.684-13.341,3.309-18.954c18.737-17.579,45.94-28.189,72.347-28.029c26.758,0.854,50.435,9.559,70.327,27.745
			C333.971,344.157,335.412,351.639,329.723,356.815z M361.818,324.644c-4.693,6.182-12.25,5.063-20.68-2.542
			c-49.941-45.049-122.497-45.02-172.125,0.237c-5.964,5.442-11.862,9.131-19.315,3.528c-6.495-4.894-5.888-12.451,1.726-19.638
			c29.233-27.611,64.174-41.066,105.146-41.597c38.022,0.844,72.044,13.852,100.851,40.193
			C363.639,310.516,367.926,316.584,361.818,324.644z"/>
		<path fill="#FFFFFF" d="M388.852,280.258c0.038-6.703-2.247-10.951-7.68-14.715c-39.321-27.242-78.559-54.598-117.614-82.229
			c-6.713-4.75-11.881-5.016-18.756-0.142c-39.018,27.668-78.226,55.071-117.623,82.198c-6.523,4.485-8.96,9.444-8.894,17.277
			c0.322,41.217,0.132,82.444,0.142,123.672c0.01,13.228,1.081,14.279,14.384,14.29c40.175,0.019,80.35,0.009,120.525,0.009
			c40.877,0,81.753-0.199,122.62,0.143c9.378,0.075,13.038-2.893,12.953-12.649C388.52,365.501,388.605,322.879,388.852,280.258z
			 M298.745,387.518c-5.281,6.012-11.444,4.96-17.617,0.246c-18.452-14.1-33.111-14.023-52.084,0.096
			c-6.144,4.58-12.204,5.613-17.674-0.408c-5.642-6.211-3.537-12.23,1.953-17.418c11.701-11.047,25.923-15.91,41.521-16.783
			c15.721,0.739,29.583,5.557,41.236,16.053C302.026,374.65,304.481,380.985,298.745,387.518z M329.723,356.815
			c-6.923,6.296-12.99,3.337-19.268-2.028c-34.126-29.225-76.898-29.034-111.09,0.436c-6.4,5.509-12.962,7.926-19.172,1.062
			c-6.353-7.036-2.684-13.341,3.309-18.954c18.737-17.579,45.94-28.189,72.347-28.029c26.758,0.854,50.435,9.559,70.327,27.745
			C333.971,344.157,335.412,351.639,329.723,356.815z M361.818,324.644c-4.693,6.182-12.25,5.063-20.68-2.542
			c-49.941-45.049-122.497-45.02-172.125,0.237c-5.964,5.442-11.862,9.131-19.315,3.528c-6.495-4.894-5.888-12.451,1.726-19.638
			c29.233-27.611,64.174-41.066,105.146-41.597c38.022,0.844,72.044,13.852,100.851,40.193
			C363.639,310.516,367.926,316.584,361.818,324.644z"/>
		<path fill="#FFFFFF" d="M254.177,151.36c-2.882,1.864-5.533,3.463-8.063,5.231c-42.63,29.8-85.235,59.631-127.865,89.426
			c-11.648,8.141-12.803,7.933-20.756-3.331c-5.636-7.984-10.997-16.176-16.874-23.979c-4.758-6.323-4.292-11.179,2.318-15.785
			c54.974-38.336,109.82-76.856,165.012-114.876c2.922-2.012,9.792-1.72,12.837,0.38c54.886,37.849,109.434,76.188,164.147,114.291
			c6.657,4.636,7.198,9.567,2.677,15.854c-5.914,8.215-11.611,16.585-17.498,24.815c-7.34,10.263-8.926,10.555-19.248,3.341
			c-42.916-29.999-85.798-60.047-128.702-90.062C259.626,154.891,257.006,153.236,254.177,151.36z"/>
		<path fill="#FFFFFF" d="M388.412,110.699c0.002,8.711,0.181,17.426-0.044,26.132c-0.264,10.199-5.58,12.967-14.185,7.192
			c-11.856-7.955-23.673-16.005-35.003-24.671c-2.812-2.15-4.868-6.721-5.207-10.369c-0.771-8.293-0.088-16.708-0.315-25.065
			c-0.201-7.392,3.016-11.051,10.488-11.016c11.146,0.051,22.301,0.061,33.448-0.044c8.025-0.075,11.181,3.864,10.886,11.709
			C388.153,93.267,388.407,101.987,388.412,110.699z"/>
	</g>
</g>
</svg>
