<?xml version="1.0"?>
<svg xmlns="http://www.w3.org/2000/svg" xmlns:xlink="http://www.w3.org/1999/xlink" xmlns:svgjs="http://svgjs.com/svgjs" version="1.1" width="512" height="512" x="0" y="0" viewBox="0 0 511.986 511.986" style="enable-background:new 0 0 512 512" xml:space="preserve" class=""><g transform="matrix(-1,0,0,1,511.9864501953125,0)"><g xmlns="http://www.w3.org/2000/svg"><path d="m440.715 233.982-58.899-7.248c-3.899-.479-7.455-2.471-9.902-5.545l-37.359-46.921-20.224-.621c-37.824 36.993-101.306 80.718-190.038 80.718-68.536.001-124.293 55.759-124.293 124.294s55.757 124.292 124.292 124.292c53.662 0 103.945-9.729 149.45-28.918 40.746-17.181 76.97-41.565 107.665-72.475 27.323-27.514 49.775-60.086 64.929-94.194 7.188-16.18 12.68-32.514 16.374-48.557z" fill="#ffffff" data-original="#000000" style=""/><path d="m505.416 231.049c9.228-25.966 8.721-54.374-1.428-79.993-8.196-20.691-22.227-38.395-40.228-51.081 17.84-30.909 7.408-70.706-23.369-88.858-7.452-4.394-17.159-1.611-21.075 6.286-3.489 7.037-.713 15.635 6.027 19.668 4.19 2.507 7.669 5.764 10.378 9.495 6.933 9.549 8.787 22.224 4.393 33.544-.665 1.713-1.469 3.397-2.424 5.032l-.539.923c-21.182-7.717-44.282-9.007-66.372-3.516-26.742 6.647-50.146 22.76-65.898 45.369-4.526 6.496-.039 15.423 7.875 15.666l29.664.91c4.406.136 8.529 2.201 11.274 5.65l37.869 47.563 58.447 7.192c3.629.446 6.97 2.203 9.396 4.94l27.687 29.402c5.112 5.429 14.157 3.53 16.654-3.496z" fill="#ffffff" data-original="#000000" style=""/></g></g></svg>
